<svg width="82" height="82" viewBox="0 0 82 82" fill="none" xmlns="http://www.w3.org/2000/svg">
<path d="M30.2231 57.1605L30.2367 57.1643L30.2507 57.1656C37.0042 57.7773 42.3137 63.47 42.3137 70.3799V76.5548C42.3137 77.2702 41.7338 77.8501 41.0184 77.8501H5.44531C4.72991 77.8501 4.15 77.2702 4.15 76.5548V70.3799C4.15 63.4699 9.4598 57.7771 16.2134 57.1656L16.2275 57.1643L16.241 57.1605C16.3337 57.134 16.4294 57.1189 16.5268 57.1137L16.8517 57.0962L16.6274 56.8605C15.0694 55.2231 14.1105 53.0118 14.1105 50.5794V43.5034C14.1105 39.5041 17.3644 36.2501 21.3638 36.2501H31.058C31.7734 36.2501 32.3533 36.83 32.3533 37.5454V42.3563C32.3533 42.4913 32.347 42.6258 32.3376 42.761L32.3365 42.7767L32.3387 42.7923C32.3476 42.855 32.3533 42.9153 32.3533 42.9754V50.5794C32.3533 53.0118 31.3943 55.2231 29.8364 56.8605L29.6121 57.0962L29.9371 57.1137C30.0345 57.1189 30.1303 57.134 30.2231 57.1605ZM29.7627 38.9906V38.8406H29.6127H21.3638C18.7928 38.8406 16.7011 40.9322 16.7011 43.5033V45.3362V45.4289V45.5789H16.8511H26.5399C28.3171 45.5789 29.7627 44.1333 29.7627 42.3561V38.9906ZM16.8511 48.1695H16.7011V48.3195V50.5792C16.7011 54.1804 19.6307 57.11 23.2319 57.11C26.8331 57.11 29.7627 54.1804 29.7627 50.5792V47.4647V47.1989L29.5351 47.3363C28.6598 47.8649 27.635 48.1695 26.5399 48.1695H16.8511ZM26.4837 59.9568L26.7398 59.7008H26.3776H20.0862H19.7241L19.9801 59.9568L23.1258 63.1027L23.2319 63.2088L23.338 63.1027L26.4837 59.9568ZM39.5732 75.2595H39.7232V75.1095V70.3799C39.7232 64.9496 35.6485 60.4568 30.397 59.7894L30.3241 59.7801L30.272 59.8322L24.1478 65.9564C23.905 66.1992 23.5754 66.3358 23.2319 66.3358C22.8884 66.3358 22.5589 66.1992 22.316 65.9564L16.1918 59.8322L16.1398 59.7801L16.0668 59.7894C11.1633 60.4127 7.28656 64.3705 6.79412 69.3134L6.77769 69.4783H6.94338H12.8887C13.6041 69.4783 14.184 70.0582 14.184 70.7736C14.184 71.489 13.6041 72.0689 12.8887 72.0689H6.89063H6.74063V72.2189V75.1095V75.2595H6.89063H39.5732Z" fill="#B7A179" stroke="#161616" stroke-width="0.3"/>
<path d="M65.7597 25.0605L65.7732 25.0644L65.7873 25.0657C72.5404 25.6775 77.8499 31.3702 77.8499 38.2799V44.4547C77.8499 45.1701 77.27 45.75 76.5546 45.75H64.4621C63.7467 45.75 63.1668 45.1701 63.1668 44.4547C63.1668 43.7393 63.7467 43.1594 64.4621 43.1594H75.1093H75.2593V43.0094V38.2799C75.2593 32.8497 71.1848 28.357 65.933 27.6895L65.86 27.6802L65.808 27.7322L59.6838 33.8564L59.6838 33.8564C59.431 34.1094 59.0996 34.2358 58.7679 34.2358C58.4362 34.2358 58.105 34.1094 57.852 33.8564L51.7278 27.7322L51.6757 27.6802L51.6028 27.6895C46.3513 28.3569 42.2768 32.8497 42.2768 38.2799V43.0093V43.1593H42.4268H52.6104C53.3258 43.1593 53.9057 43.7392 53.9057 44.4546C53.9057 45.17 53.3258 45.7499 52.6104 45.7499H40.9814C40.266 45.7499 39.6861 45.17 39.6861 44.4546V38.2798C39.6861 31.3701 44.9955 25.6773 51.7488 25.0655L51.7629 25.0642L51.7764 25.0604C51.8692 25.034 51.9652 25.0188 52.0628 25.0136L52.3877 24.9961L52.1634 24.7604C50.6055 23.123 49.6466 20.9117 49.6466 18.4793V11.4033C49.6466 7.40402 52.9005 4.15 56.9 4.15H66.5941C67.3095 4.15 67.8894 4.72991 67.8894 5.44531V10.2562C67.8894 10.3912 67.8831 10.5257 67.8738 10.6609L67.8727 10.6766L67.8749 10.6922C67.8837 10.7549 67.8894 10.8153 67.8894 10.8754V18.4794C67.8894 20.9118 66.9306 23.1232 65.3727 24.7606L65.1484 24.9963L65.4733 25.0137C65.571 25.019 65.6669 25.0341 65.7597 25.0605ZM58.6621 31.0026L58.7682 31.1087L58.8743 31.0026L62.02 27.8569L62.276 27.6008H61.9139H55.6225H55.2603L55.5164 27.8569L58.6621 31.0026ZM52.3874 16.0695H52.2374V16.2195V18.4794C52.2374 22.0806 55.167 25.0101 58.7682 25.0101C62.3694 25.0101 65.299 22.0805 65.299 18.4793V15.3648V15.099L65.0714 15.2364C64.1961 15.7648 63.1713 16.0695 62.0762 16.0695H52.3874ZM52.2374 13.3289V13.4789H52.3874H62.0762C63.8534 13.4789 65.299 12.0334 65.299 10.2562V6.89063V6.74063H65.149H56.9001C54.329 6.74063 52.2374 8.83223 52.2374 11.4033V13.2363V13.3289Z" fill="#B7A179" stroke="#161616" stroke-width="0.3"/>
<path d="M57.8527 43.5389L57.853 43.5386C58.0938 43.2978 58.4272 43.159 58.7688 43.159C59.1091 43.159 59.4438 43.2978 59.6846 43.5386C59.9253 43.7793 60.0641 44.1141 60.0641 44.4543C60.0641 44.796 59.9254 45.1293 59.6846 45.3701L59.6843 45.3704C59.4439 45.6121 59.1094 45.7497 58.7688 45.7497C58.4268 45.7497 58.0937 45.6121 57.8533 45.3704L57.8527 45.3698C57.611 45.1294 57.4735 44.7963 57.4735 44.4543C57.4735 44.1137 57.6111 43.7792 57.8527 43.5389ZM57.3235 44.4543C57.3235 44.8359 57.4767 45.2074 57.747 45.4762H59.7906C60.0595 45.2074 60.2141 44.8359 60.2141 44.4543C60.2141 44.0742 60.0595 43.7013 59.7906 43.4325C59.5218 43.1637 59.1489 43.009 58.7688 43.009C58.3872 43.009 58.0158 43.1637 57.747 43.4325C57.4767 43.7013 57.3235 44.0742 57.3235 44.4543Z" fill="#B7A179" stroke="#161616" stroke-width="0.3"/>
<path d="M36.4539 18.1797V18.2418L36.4979 18.2857L42.5423 24.3302C42.9126 24.7006 43.0235 25.2579 42.823 25.7418C42.6225 26.2257 42.1501 26.5414 41.6263 26.5414H36.0641H35.9632L35.9252 26.6349C34.8548 29.266 32.3039 31.0219 29.3772 31.0219H11.2266C7.32468 31.0219 4.15 27.8472 4.15 23.9453V11.2266C4.15 7.32468 7.32468 4.15 11.2266 4.15H29.3774C33.2793 4.15 36.4539 7.32468 36.4539 11.2266V18.1797ZM38.137 23.9508H38.4991L38.243 23.6947L34.2426 19.6942C33.9997 19.4514 33.8632 19.1218 33.8632 18.7783V11.2266C33.8632 8.75288 31.8509 6.74063 29.3772 6.74063H11.2266C8.75288 6.74063 6.74063 8.75288 6.74063 11.2266V23.9453C6.74063 26.419 8.75288 28.4313 11.2266 28.4313H29.3772C31.4791 28.4313 33.2767 27.0017 33.7473 24.9557C33.8827 24.3675 34.4063 23.9508 35.0098 23.9508H38.137Z" fill="#B7A179" stroke="#161616" stroke-width="0.3"/>
<path d="M45.9359 55.4586H46.0368L46.0748 55.3651C47.1452 52.734 49.6961 50.9781 52.6228 50.9781H70.7734C74.6753 50.9781 77.85 54.1528 77.85 58.0547V70.7734C77.85 74.6753 74.6753 77.85 70.7734 77.85H52.6226C48.7207 77.85 45.5461 74.6753 45.5461 70.7734V63.8203V63.7582L45.5021 63.7143L39.4577 57.6698C39.4577 57.6698 39.4577 57.6698 39.4577 57.6698C39.0873 57.2993 38.9765 56.7421 39.177 56.2582C39.3775 55.7743 39.8499 55.4586 40.3737 55.4586H45.9359ZM43.863 58.0492H43.5009L48.3988 57.0779L48.2527 57.0443C48.2527 57.0443 48.2527 57.0443 48.2527 57.0443C48.1173 57.6325 47.5937 58.0492 46.9902 58.0492H43.863Z" fill="#B7A179" stroke="#161616" stroke-width="0.3"/>
<path d="M62.3086 64.6223L62.2026 64.5162L60.416 62.7297C59.9102 62.2239 59.09 62.2238 58.584 62.7297C58.584 62.7297 58.584 62.7297 58.584 62.7297M62.3086 64.6223L58.584 62.7297M62.3086 64.6223L62.4147 64.5162L66.2568 60.6741C66.7626 60.1683 67.5828 60.1683 68.0884 60.6741C68.5943 61.1801 68.5943 62.0003 68.0885 62.5061L63.2244 67.3702L63.2244 67.3702C62.9715 67.6232 62.6402 67.7496 62.3085 67.7496C61.9768 67.7496 61.6456 67.6232 61.3926 67.3702L58.5841 64.5617M62.3086 64.6223L58.5841 64.5617M58.584 62.7297C58.0782 63.2355 58.0782 64.0557 58.5841 64.5617M58.584 62.7297L58.5841 64.5617" fill="#B7A179" stroke="#161616" stroke-width="0.3"/>
<path d="M23.9888 13.7765C24.0618 14.8343 23.3684 15.7691 22.34 15.9992M23.9888 13.7765L24.1385 13.7662C24.1385 13.7662 24.1385 13.7662 24.1385 13.7662C24.0612 12.6452 23.1585 11.7425 22.0375 11.6651C21.3992 11.6203 20.7895 11.8358 20.3249 12.2697C19.8598 12.7039 19.6032 13.2942 19.6032 13.93C19.6032 14.6454 19.0233 15.2253 18.3079 15.2253C17.5925 15.2253 17.0126 14.6454 17.0124 13.9298L22.34 15.9992M23.9888 13.7765C23.9167 12.7302 23.0734 11.8869 22.0271 11.8148L23.9888 13.7765ZM22.34 15.9992C21.2144 16.251 20.4283 17.2296 20.4283 18.3789M22.34 15.9992L20.4283 18.3789M18.5571 10.3758L18.5571 10.3758C17.5756 11.2919 17.0124 12.5877 17.0124 13.9298L18.5571 10.3758ZM18.5571 10.3758C19.5527 9.44631 20.8514 8.98659 22.2154 9.08044L18.5571 10.3758ZM20.4283 18.3789V19.15M20.4283 18.3789V19.15M20.4283 19.15C20.4283 19.9483 21.0754 20.5953 21.8736 20.5953M20.4283 19.15L21.8736 20.5953M21.8736 20.5953C22.6719 20.5953 23.3189 19.9483 23.3189 19.15M21.8736 20.5953L23.3189 19.15M23.3189 19.15V18.7294V19.15Z" fill="#B7A179" stroke="#161616" stroke-width="0.3"/>
<path d="M20.9582 23.7654L20.9585 23.7651C21.1993 23.5243 21.5326 23.3856 21.8743 23.3856C22.2145 23.3856 22.5493 23.5244 22.79 23.7651C23.0308 24.0059 23.1696 24.3406 23.1696 24.6809C23.1696 25.0212 23.0308 25.3559 22.79 25.5967C22.5493 25.8374 22.2145 25.9762 21.8743 25.9762C21.5326 25.9762 21.1993 25.8375 20.9585 25.5967L20.9582 25.5964C20.7165 25.356 20.579 25.0215 20.579 24.6809C20.579 24.3403 20.7165 24.0058 20.9582 23.7654Z" fill="#B7A179" stroke="#161616" stroke-width="0.3"/>
<path d="M18.6699 69.4781C19.0102 69.4781 19.345 69.6169 19.5857 69.8577C19.8264 70.0984 19.9652 70.4332 19.9652 70.7734C19.9652 71.1137 19.8264 71.4485 19.5857 71.6892C19.345 71.9299 19.0102 72.0688 18.6699 72.0688C18.3296 72.0688 17.9949 71.9299 17.7542 71.6892C17.5134 71.4485 17.3746 71.1137 17.3746 70.7734C17.3746 70.4332 17.5134 70.0984 17.7542 69.8577C17.9949 69.6169 18.3296 69.4781 18.6699 69.4781Z" fill="#B7A179" stroke="#161616" stroke-width="0.3"/>
</svg>
